# xmcd
#
# Track frame offsets:
#	150
#	14592
#	30582
#	50977
#	75357
#	87625
#	105480
#	125014
#	137607
#	154883
#	165733
#	181551
#
# Disc length: 2592 seconds
#
# Revision: 1
# Processed by: cddbd v1.4PL0 Copyright (c) Steve Scherf et al.
# Submitted via: audiograbber 1.81.01
#
DISCID=960a1e0c
DTITLE=Midnight Breakfast - Mr. Nobody
DYEAR=1999
DGENRE=Blues
TTITLE0=Mr. Nobody
TTITLE1=Roof Is Falling Down On My Head
TTITLE2=Easy
TTITLE3=Kind Hearted Woman Blues
TTITLE4=I Hate You
TTITLE5=Commit a Crime
TTITLE6=All Around Me
TTITLE7=Shadows
TTITLE8=Backdoor Man
TTITLE9=I'm Got Nothing
TTITLE10=Baby Lee
TTITLE11=Looking For Money
EXTD=
EXTT0=
EXTT1=
EXTT2=
EXTT3=
EXTT4=
EXTT5=
EXTT6=
EXTT7=
EXTT8=
EXTT9=
EXTT10=
EXTT11=
PLAYORDER=
